<svg width="15" height="16" viewBox="0 0 15 16" fill="none" xmlns="http://www.w3.org/2000/svg">
<path fill-rule="evenodd" clip-rule="evenodd" d="M7.63851 1.83667C6.31764 1.94594 2.06136 4.97469 1.865 5.87702C1.75331 6.50566 3.49512 11.3214 3.97274 11.849C4.31795 12.479 6.67896 13.833 7.61342 13.8928C8.53902 13.8678 10.8313 12.5206 11.286 11.849C12.1026 10.2844 13.5651 6.30667 13.4813 5.87702C12.1603 4.02319 8.99617 1.94066 7.63851 1.83667ZM7.64634 3.20155C6.62451 3.28609 3.33185 5.62913 3.17994 6.32717C3.09354 6.81349 4.44101 10.539 4.8105 10.9471C5.07755 11.4345 6.90403 12.4819 7.62693 12.5282C8.34298 12.5089 10.1162 11.4667 10.4681 10.9471C11.0998 9.7367 12.2312 6.65956 12.1663 6.32717C11.1444 4.89305 8.69662 3.282 7.64634 3.20155Z" fill="#707070"/>
<path d="M4.22985 6.67835C4.34622 6.13979 6.86861 4.33206 7.65139 4.26685C8.45598 4.32891 10.3311 5.57188 11.114 6.67835C11.1637 6.9348 10.2969 9.3089 9.81301 10.2427C9.5435 10.6436 8.18506 11.4477 7.63652 11.4626C7.08274 11.4269 5.68354 10.6188 5.47896 10.2427C5.19591 9.92786 4.16366 7.05356 4.22985 6.67835Z" fill="#707070"/>
</svg>
