<svg width="16" height="16" viewBox="0 0 16 16" fill="none" xmlns="http://www.w3.org/2000/svg">
<path fill-rule="evenodd" clip-rule="evenodd" d="M8.43818 6.04881C8.21808 5.62608 7.75745 5.22481 7.31282 5.0961C6.71575 4.92326 5.99726 5.14062 5.49697 5.69494C5.14879 6.08072 5.01497 6.54806 5.00044 6.92953C4.95626 8.08892 5.8105 8.4992 6.3879 8.94304C7.10708 9.49585 7.79536 10.0821 8.43818 10.687C9.06892 10.0479 9.76984 9.47236 10.5073 8.94304C11.0652 8.54259 11.9113 8.01397 11.8948 6.92953C11.8868 6.40992 11.7464 6.08072 11.3982 5.69494C10.8979 5.14062 10.1795 4.92326 9.58239 5.0961C9.13775 5.22481 8.65828 5.62608 8.43818 6.04881Z" fill="#707070"/>
<path fill-rule="evenodd" clip-rule="evenodd" d="M8.45066 4.94441C8.00406 4.08665 7.5544 3.5637 6.5762 3.28053C5.58315 2.99307 4.4099 3.14738 3.55608 4.27653C3.00104 5.01055 2.75443 5.69543 2.73026 6.32988C2.70609 6.96415 2.90466 7.53638 3.21985 8.04453C3.84676 9.05524 4.94671 9.82945 5.72367 10.3645C6.76088 11.0788 7.31347 11.5669 7.82966 12.0228C8.01433 12.186 8.4749 12.5751 8.4749 12.5751C8.4749 12.5751 8.8923 12.2041 9.09744 12.0229C9.61363 11.567 10.1663 11.0788 11.2035 10.3645C11.9804 9.82945 13.0804 9.05524 13.7073 8.04453C14.0225 7.53638 14.221 6.96415 14.1969 6.32988C14.1727 5.69543 13.9261 5.01055 13.3711 4.27653C12.5172 3.14738 11.344 2.99307 10.3509 3.28053C9.38833 3.55918 8.89453 4.0919 8.45066 4.94441ZM8.46036 5.60171C8.10222 4.95442 7.7381 4.44741 6.93744 4.33161C6.02939 4.20028 5.45192 4.33161 4.77972 5.09771C4.31105 5.63184 4.24364 6.24656 4.22426 6.72533C4.20488 7.20396 4.27312 7.89854 4.57846 8.24163C5.32894 9.08487 5.72595 9.22073 6.42742 9.77339C7.95139 10.9741 7.95921 11.0035 8.46036 11.4831C8.46036 11.4831 8.79267 11.1557 8.95718 11.0189C9.37113 10.6749 9.60537 10.4529 10.4456 9.82816C11.1769 9.28437 11.6305 9.08183 12.2983 8.24163C12.5511 7.85816 12.766 7.43233 12.7615 6.79051C12.7571 6.14869 12.6392 5.69668 12.2014 5.09771C11.7446 4.47278 11.0053 4.12192 9.98426 4.3461C9.23109 4.51148 8.81632 4.95838 8.46036 5.60171Z" fill="#707070"/>
</svg>
